<svg width="8" height="6" viewBox="0 0 8 6" fill="none" xmlns="http://www.w3.org/2000/svg">
<g clip-path="url(#clip0_383_1925)">
<path d="M7.99928 0.861027C6.51922 2.36103 5.05191 3.87407 3.57185 5.38711C3.39322 5.56972 3.21459 5.75233 3.03597 5.93494C2.94665 6.02624 2.89562 6.02624 2.8063 5.93494C1.9004 4.99581 0.98174 4.05668 0.0630794 3.11755C-0.0262348 3.02624 -0.0262348 2.97407 0.0630794 2.88277C0.267226 2.67407 0.471373 2.46537 0.67552 2.25668C0.764834 2.16537 0.81587 2.16537 0.905185 2.25668C1.5559 2.9219 2.20662 3.58711 2.85734 4.25233C2.88286 4.27842 2.89561 4.3045 2.90837 4.33059C2.93389 4.3045 2.95941 4.27842 2.98493 4.26537C4.35016 2.86972 5.70263 1.48711 7.06786 0.0914614C7.1827 -0.0259299 7.22097 -0.0259299 7.33581 0.0914614C7.52719 0.287114 7.71858 0.482766 7.90997 0.678418C7.93549 0.704505 7.97376 0.743635 7.99928 0.782766C7.99928 0.808853 7.99928 0.83494 7.99928 0.861027Z" fill="white"/>
</g>
<defs>
<clipPath id="clip0_383_1925">
<rect width="8" height="6" fill="white"/>
</clipPath>
</defs>
</svg>
