<svg width="17" height="16" viewBox="0 0 17 16" fill="none" xmlns="http://www.w3.org/2000/svg">
<path d="M7.90703 0.040206C7.76991 0.103205 7.64762 0.232908 7.59574 0.370024C7.56609 0.444139 7.55498 1.86347 7.55498 4.92818V9.38257L6.32465 8.15224C5.64648 7.47408 5.04243 6.90338 4.98684 6.88485C4.71632 6.78109 4.40133 6.89226 4.2605 7.14055C4.17527 7.29249 4.15674 7.54078 4.22345 7.67048C4.28274 7.78537 7.77362 11.2837 7.89591 11.3504C8.02562 11.4171 8.2702 11.4171 8.3999 11.3504C8.45549 11.3207 9.29671 10.498 10.2676 9.52339C12.1761 7.61119 12.1205 7.67419 12.0613 7.34437C12.0279 7.17391 11.8315 6.97379 11.6388 6.9182C11.3164 6.81815 11.2979 6.83297 9.95635 8.17077L8.74084 9.37887L8.73343 4.87259C8.72231 0.384847 8.72231 0.362612 8.64449 0.262555C8.60372 0.206967 8.5259 0.12544 8.47402 0.0883808C8.34802 -0.00426388 8.05526 -0.0302048 7.90703 0.040206Z" fill="#B99984"/>
<path d="M0.343659 9.56397C0.202838 9.62697 0.0805462 9.7752 0.0286647 9.95308C0.00272402 10.0457 -0.00468762 10.5015 0.00272402 11.3465C0.0175473 12.5916 0.0212531 12.6102 0.12131 12.94C0.377012 13.7812 0.918061 14.4223 1.68146 14.7929C2.3448 15.1153 1.77411 15.0893 8.14811 15.0893C14.5221 15.0893 13.9514 15.1153 14.6148 14.7929C15.3967 14.4149 15.9674 13.7145 16.1972 12.8659C16.2676 12.5953 16.2787 12.4582 16.2898 11.2909C16.3046 10.0161 16.3046 10.0124 16.2194 9.84932C16.1082 9.63438 15.9785 9.54174 15.7525 9.5195C15.519 9.49727 15.3078 9.60844 15.1929 9.80855C15.1188 9.94196 15.1151 9.99755 15.1151 11.0908C15.1151 12.373 15.0891 12.5842 14.8853 12.9696C14.7334 13.2587 14.4147 13.5774 14.1515 13.7071C13.6957 13.9331 14.007 13.922 8.14811 13.922C2.29292 13.922 2.61533 13.9331 2.1521 13.7071C1.87046 13.5737 1.55176 13.2513 1.40723 12.9622C1.20712 12.5694 1.18117 12.3656 1.18117 11.0908C1.18117 9.99755 1.17747 9.94196 1.10335 9.80855C0.958825 9.55285 0.621596 9.44538 0.343659 9.56397Z" fill="#B99984"/>
</svg>
