<svg width="29" height="29" viewBox="0 0 29 29" fill="none" xmlns="http://www.w3.org/2000/svg">
<path opacity="0.96" fill-rule="evenodd" clip-rule="evenodd" d="M13.7922 5.40917C18.468 5.31725 22.4045 6.95982 25.6017 10.3369C26.4258 11.2485 27.1245 12.2491 27.6974 13.3389C28.0778 14.358 27.9645 15.3209 27.3576 16.2275C24.9879 20.0245 21.5988 22.3751 17.1906 23.2793C11.7552 24.1045 7.13898 22.5469 3.34196 18.6064C2.51782 17.6949 1.81926 16.6942 1.24626 15.6045C0.88963 14.7566 0.927387 13.9258 1.35954 13.1123C4.16381 8.40954 8.30804 5.84185 13.7922 5.40917ZM14.132 7.16503C18.7808 7.20955 22.4907 9.07869 25.2619 12.7725C25.5878 13.2163 25.871 13.6883 26.1115 14.1885C26.1493 14.3773 26.1493 14.5661 26.1115 14.7549C24.2054 18.2271 21.3262 20.4456 17.4738 21.4101C13.1155 22.2935 9.22613 21.3306 5.80583 18.5215C4.58941 17.4358 3.5982 16.1803 2.83219 14.7549C2.79443 14.5661 2.79443 14.3773 2.83219 14.1885C5.33064 9.82776 9.09721 7.48658 14.132 7.16503Z" fill="white" fill-opacity="0.7"/>
<path opacity="0.96" d="M11.1645 11.3908C11.8261 10.6753 12.7935 10.1788 14.1402 9.95353C15.1565 9.94658 16.0047 10.16 16.7111 10.5658C17.4202 10.9733 18.0286 11.599 18.5261 12.4791C18.9154 13.4151 19.0376 14.2799 18.9278 15.0874C18.8181 15.8943 18.4704 16.6916 17.8476 17.4833C17.1067 18.2169 16.3319 18.6584 15.5232 18.8498C14.7129 19.0416 13.8168 18.9947 12.816 18.6704C11.88 18.2494 11.2018 17.694 10.7417 17.0195C10.2832 16.3472 10.0115 15.513 9.95576 14.4855C10.0793 13.1157 10.5017 12.1075 11.1645 11.3908Z" stroke="white" stroke-opacity="0.7" stroke-width="1.5"/>
</svg>
