<svg width="36" height="35" viewBox="0 0 36 35" fill="none" xmlns="http://www.w3.org/2000/svg">
<path opacity="0.946" fill-rule="evenodd" clip-rule="evenodd" d="M11.4482 4.06741C13.0562 3.99203 14.6513 4.09457 16.2333 4.37503C17.5303 4.64174 18.6582 5.2228 19.6171 6.11819C19.7899 6.37256 19.9266 6.646 20.0273 6.9385C20.0729 8.53353 20.0729 10.1286 20.0273 11.7237C19.9227 11.9298 19.7519 12.021 19.5146 11.9971C19.2773 12.021 19.1064 11.9298 19.0019 11.7237C18.9904 10.9479 18.9562 10.1732 18.8993 9.39944C17.6859 10.1495 16.3642 10.5939 14.9345 10.7324C12.514 11.0532 10.167 10.7798 7.89348 9.91214C7.58839 9.75491 7.29219 9.58401 7.00481 9.39944C6.92509 10.4925 6.91369 11.5863 6.97063 12.6807C7.10107 13.1988 7.40868 13.5748 7.89348 13.8086C9.79544 14.7176 11.8007 15.0822 13.9091 14.9024C15.0494 14.8052 16.166 14.5887 17.2587 14.253C17.7446 14.319 17.9155 14.5924 17.7714 15.0733C17.7396 15.1711 17.6826 15.2508 17.6005 15.3125C14.4247 16.3764 11.2574 16.3536 8.09856 15.2442C7.69469 15.0709 7.31872 14.8544 6.97063 14.5948C6.90708 15.8055 6.92987 17.0132 7.03899 18.2178C7.35713 18.6956 7.77871 19.0488 8.30364 19.2774C10.4492 20.1181 12.6594 20.3687 14.9345 20.0293C15.9645 19.8772 16.9557 19.5924 17.9081 19.1748C18.2541 19.2359 18.4478 19.441 18.4892 19.7901C18.4664 19.9616 18.3981 20.1098 18.2841 20.2344C17.0515 20.8217 15.7526 21.1635 14.3876 21.2598C12.4591 21.4445 10.5678 21.2623 8.71379 20.7129C7.77857 20.4223 6.96962 19.9324 6.28704 19.2432C6.15577 19.0491 6.04184 18.844 5.94524 18.628C5.86628 16.6496 5.83211 14.6672 5.8427 12.6807C5.83211 10.6942 5.86628 8.71175 5.94524 6.73343C6.11562 6.31321 6.37766 5.96003 6.73137 5.67385C7.54075 5.09836 8.42942 4.68821 9.39739 4.44339C10.0865 4.29451 10.77 4.16919 11.4482 4.06741ZM12.8837 5.16116C14.5163 5.16163 16.0886 5.46925 17.6005 6.08401C18.0671 6.30061 18.4659 6.60823 18.7968 7.00686C18.9945 7.55886 18.8464 8.0032 18.3525 8.33987C17.2664 9.02094 16.0815 9.43109 14.7978 9.57034C12.6421 9.86251 10.5458 9.63467 8.50872 8.88675C7.88877 8.64051 7.3989 8.24171 7.03899 7.69046C6.99341 7.50814 6.99341 7.3259 7.03899 7.14358C7.35713 6.66582 7.77871 6.31264 8.30364 6.08401C9.77965 5.48138 11.3063 5.17376 12.8837 5.16116Z" fill="#313245"/>
<path opacity="0.958" fill-rule="evenodd" clip-rule="evenodd" d="M19.241 13.0907C23.0692 13.0793 26.8973 13.0907 30.7254 13.1249C30.788 13.1505 30.845 13.1846 30.8963 13.2274C31.0085 14.5657 31.0313 15.9101 30.9646 17.2606C30.8059 18.0792 30.4641 18.8084 29.9392 19.4481C28.9994 20.3991 28.0993 21.3789 27.239 22.3876C28.0993 23.3963 28.9994 24.3761 29.9392 25.327C30.4641 25.9667 30.8059 26.6959 30.9646 27.5145C31.0102 28.8134 31.0102 30.1122 30.9646 31.411C30.9391 31.4736 30.9049 31.5307 30.8621 31.5819C28.9082 31.6611 26.9486 31.6953 24.9832 31.6845C23.0691 31.673 21.155 31.6617 19.241 31.6503C19.1784 31.6247 19.1214 31.5905 19.0701 31.5477C18.9919 30.8706 18.9578 30.187 18.9675 29.497C18.7499 28.043 19.0575 26.7214 19.8904 25.5321C20.6651 24.7118 21.4399 23.8915 22.2146 23.0712C22.401 22.8513 22.5719 22.6234 22.7273 22.3876C21.8671 21.3789 20.967 20.3991 20.0271 19.4481C19.0926 18.228 18.7394 16.8494 18.9675 15.3124C18.979 14.663 18.9903 14.0136 19.0017 13.3641C19.0489 13.2377 19.1286 13.1465 19.241 13.0907ZM20.0613 14.1845C23.3425 14.1845 26.6238 14.1845 29.905 14.1845C29.9165 14.9368 29.905 15.6887 29.8709 16.4403C29.8383 17.1891 29.6103 17.8727 29.1873 18.4911C28.1824 19.5187 27.2026 20.5668 26.2478 21.6356C26.02 22.1369 26.02 22.6383 26.2478 23.1395C27.1365 24.0738 28.0252 25.008 28.9138 25.9423C29.2358 26.3236 29.4978 26.7452 29.7 27.2069C27.0223 27.228 24.345 27.2622 21.6677 27.3095C21.2006 27.2867 20.7335 27.2639 20.2664 27.2411C20.4597 26.7627 20.7218 26.3297 21.0525 25.9423C21.9412 25.008 22.8298 24.0738 23.7185 23.1395C24.0008 22.5007 23.9325 21.9082 23.5134 21.3622C22.6248 20.4279 21.7361 19.4937 20.8474 18.5595C20.3801 17.9325 20.1294 17.226 20.0955 16.4403C20.0613 15.6887 20.0499 14.9368 20.0613 14.1845ZM28.5379 28.4032C28.9936 28.4032 29.4493 28.4032 29.905 28.4032C29.905 29.1324 29.905 29.8615 29.905 30.5907C26.6238 30.5907 23.3425 30.5907 20.0613 30.5907C20.0613 29.8844 20.0613 29.1779 20.0613 28.4716C22.8984 28.4943 25.724 28.4715 28.5379 28.4032Z" fill="#313245"/>
</svg>
