<svg width="58" height="87" viewBox="0 0 58 87" fill="none" xmlns="http://www.w3.org/2000/svg">
<path d="M28.4992 86.079C26.8756 84.0514 25.658 82.0238 24.4404 79.9963C18.3521 70.6695 12.2639 60.9372 7.39329 51.2049C4.958 46.3388 2.5227 41.4727 1.30506 36.201C-0.724355 29.3073 0.0874101 22.8191 2.92859 17.142C7.39329 8.22069 14.2933 3.35455 24.0345 1.32699C39.0521 -1.51159 54.0698 9.43723 56.9109 24.4412C57.7227 29.3073 56.9109 33.7679 55.2874 38.2286C52.8521 45.5278 49.1992 52.827 45.1404 59.7207C40.2698 68.2364 34.9933 76.7522 29.3109 85.2679C28.9051 85.2679 28.9051 85.6734 28.4992 86.079Z" fill="#B99984"/>
</svg>
