<svg width="35" height="34" viewBox="0 0 35 34" fill="none" xmlns="http://www.w3.org/2000/svg">
<ellipse cx="17.4089" cy="17" rx="17.1023" ry="17" fill="white"/>
<g clip-path="url(#clip0_161_250)">
<path opacity="0.941" fill-rule="evenodd" clip-rule="evenodd" d="M25.9814 16.4795C25.9814 17.0856 25.9814 17.6917 25.9814 18.2978C25.8962 18.4384 25.7725 18.5311 25.6104 18.5762C25.3633 18.5947 25.1159 18.6009 24.8682 18.5947C24.5353 20.5376 24.1951 22.4796 23.8477 24.4209C23.5954 25.2422 23.0449 25.7184 22.1963 25.8496C18.3864 25.8743 14.5765 25.8743 10.7666 25.8496C9.97738 25.7408 9.4393 25.3141 9.15234 24.5693C8.94243 23.4707 8.74452 22.3698 8.55859 21.2666C8.53385 21.1305 8.53385 20.9945 8.55859 20.8584C8.79362 20.6481 8.97917 20.6852 9.11523 20.9697C9.30559 22.1242 9.51587 23.2746 9.74609 24.4209C9.95101 24.9098 10.3159 25.1881 10.8408 25.2558C14.6012 25.2806 18.3617 25.2806 22.1221 25.2558C22.6903 25.1701 23.0676 24.8547 23.2539 24.3096C23.5883 22.4083 23.9285 20.5095 24.2744 18.6133C19.0791 18.5885 13.8838 18.5885 8.68848 18.6133C8.76848 18.9879 8.8427 19.3652 8.91113 19.7451C8.86447 19.9974 8.71603 20.0902 8.46582 20.0234C8.42252 19.9801 8.37923 19.9368 8.33594 19.8935C8.24748 19.4617 8.16707 19.0287 8.09473 18.5947C7.84702 18.6009 7.59962 18.5947 7.35254 18.5762C7.19039 18.5311 7.06669 18.4384 6.98145 18.2978C6.98145 17.6917 6.98145 17.0856 6.98145 16.4795C7.12891 16.2317 7.35157 16.1327 7.64941 16.1826C7.51351 15.6701 7.40837 15.1505 7.33398 14.624C7.28132 13.5164 7.75756 12.7371 8.7627 12.2861C8.52931 12.0962 8.30047 11.8983 8.07617 11.6924C7.99871 11.5284 8.02964 11.3862 8.16895 11.2656C8.2975 11.2353 8.4212 11.2477 8.54004 11.3027C8.66992 11.4079 8.7998 11.513 8.92969 11.6181C8.88416 11.2912 8.8285 10.9634 8.7627 10.6347C8.76628 10.4394 8.86524 10.3343 9.05957 10.3193C9.15647 10.3214 9.23688 10.3585 9.30078 10.4306C9.39306 10.7874 9.47965 11.1461 9.56055 11.5068C9.66727 11.287 9.79715 11.0829 9.9502 10.8945C10.1897 10.8286 10.3381 10.9152 10.3955 11.1543C10.2764 11.4667 10.128 11.7635 9.9502 12.0449C10.9844 12.0451 11.7203 12.509 12.1582 13.4365C12.298 13.8347 12.3969 14.2429 12.4551 14.6611C12.5742 14.5155 12.6794 14.3609 12.7705 14.1972C12.6447 14.083 12.5643 13.9408 12.5293 13.7705C12.5045 13.387 12.5045 13.0035 12.5293 12.6201C12.5639 12.4248 12.6691 12.2826 12.8447 12.1933C13.3643 12.1686 13.8838 12.1686 14.4033 12.1933C14.623 12.4307 14.5859 12.6162 14.292 12.75C13.8964 12.7685 13.5005 12.7747 13.1045 12.7685C13.1045 13.0531 13.1045 13.3375 13.1045 13.6221C15.1579 13.6221 17.2113 13.6221 19.2646 13.6221C19.2646 13.3375 19.2646 13.0531 19.2646 12.7685C18.0153 12.7747 16.7659 12.7685 15.5166 12.75C15.3434 12.7252 15.2445 12.6263 15.2197 12.4531C15.2367 12.348 15.2862 12.2615 15.3682 12.1933C16.7536 12.1686 18.139 12.1686 19.5244 12.1933C19.679 12.249 19.7842 12.3541 19.8398 12.5088C19.8646 12.9664 19.8646 13.4241 19.8398 13.8818C19.7935 14.0086 19.713 14.1076 19.5986 14.1787C19.7008 14.346 19.8121 14.5068 19.9326 14.6611C20.2106 14.3534 20.4889 14.0441 20.7676 13.7334C20.8366 13.6448 20.8861 13.5458 20.916 13.4365C20.9408 12.9788 20.9408 12.5211 20.916 12.0635C20.7386 12.0118 20.6149 11.9005 20.5449 11.7295C20.509 10.9231 20.5214 10.119 20.582 9.31736C20.6515 9.23539 20.732 9.16736 20.8232 9.11326C22.0386 9.0767 23.2509 9.08907 24.46 9.15037C24.6122 9.25064 24.6926 9.3929 24.7012 9.57713C24.7259 10.2451 24.7259 10.9131 24.7012 11.581C24.6715 11.8397 24.5292 12.0004 24.2744 12.0635C24.2311 12.5206 24.2249 12.9783 24.2559 13.4365C24.2913 13.5433 24.3408 13.6422 24.4043 13.7334C24.7769 14.143 25.1356 14.5636 25.4805 14.9951C25.6308 15.3887 25.6865 15.7969 25.6475 16.2197C25.8087 16.2444 25.9201 16.331 25.9814 16.4795ZM21.1201 9.65135C22.1221 9.65135 23.124 9.65135 24.126 9.65135C24.126 10.2575 24.126 10.8636 24.126 11.4697C23.124 11.4697 22.1221 11.4697 21.1201 11.4697C21.1201 10.8636 21.1201 10.2575 21.1201 9.65135ZM21.5283 12.0635C22.2334 12.0635 22.9385 12.0635 23.6436 12.0635C23.6374 12.546 23.6436 13.0284 23.6621 13.5107C23.7114 13.7453 23.8104 13.9556 23.959 14.1416C24.2806 14.5127 24.6022 14.8838 24.9238 15.2549C24.9818 15.346 25.0189 15.445 25.0352 15.5517C25.0537 15.7617 25.0599 15.972 25.0537 16.1826C23.4085 16.1826 21.7633 16.1826 20.1182 16.1826C20.0894 15.8619 20.1327 15.5526 20.248 15.2549C20.582 14.8714 20.916 14.4879 21.25 14.1045C21.3336 13.9743 21.4079 13.8383 21.4727 13.6963C21.5258 13.1542 21.5444 12.6099 21.5283 12.0635ZM9.54199 12.6572C10.301 12.5245 10.9257 12.7472 11.416 13.3252C11.6315 13.6919 11.7676 14.0878 11.8242 14.5127C11.9234 15.0651 11.979 15.6218 11.9912 16.1826C10.7542 16.1826 9.51725 16.1826 8.28027 16.1826C8.13361 15.6577 8.0161 15.1258 7.92773 14.5869C7.89806 13.7369 8.27534 13.1493 9.05957 12.8242C9.22258 12.7622 9.38339 12.7065 9.54199 12.6572ZM13.4756 14.2158C15.2816 14.2096 17.0876 14.2158 18.8936 14.2344C19.1123 14.5398 19.3164 14.8552 19.5059 15.1806C19.5244 15.5144 19.5306 15.8484 19.5244 16.1826C19.2894 16.1826 19.0543 16.1826 18.8193 16.1826C18.8255 15.9102 18.8193 15.6381 18.8008 15.3662C18.7467 15.2749 18.6787 15.1945 18.5967 15.125C17.7949 15.0823 16.9909 15.0637 16.1846 15.0693C15.4176 15.0755 14.6507 15.0817 13.8838 15.0879C13.7131 15.1472 13.608 15.2647 13.5684 15.4404C13.5498 15.6875 13.5436 15.9349 13.5498 16.1826C13.3148 16.1826 13.0797 16.1826 12.8447 16.1826C12.8386 15.8731 12.8447 15.5639 12.8633 15.2549C13.058 14.9026 13.2621 14.5562 13.4756 14.2158ZM14.1436 15.6631C15.5042 15.6631 16.8649 15.6631 18.2256 15.6631C18.2256 15.8363 18.2256 16.0094 18.2256 16.1826C16.8649 16.1826 15.5042 16.1826 14.1436 16.1826C14.1436 16.0094 14.1436 15.8363 14.1436 15.6631ZM7.5752 16.7763C13.5127 16.7763 19.4502 16.7763 25.3877 16.7763C25.3877 17.1846 25.3877 17.5928 25.3877 18.001C19.4502 18.001 13.5127 18.001 7.5752 18.001C7.5752 17.5928 7.5752 17.1846 7.5752 16.7763Z" fill="#313245"/>
<path opacity="0.903" fill-rule="evenodd" clip-rule="evenodd" d="M9.28227 13.8448C9.53733 13.7864 9.69814 13.8792 9.76469 14.1231C9.74973 14.2302 9.70025 14.3168 9.61626 14.3829C9.30567 14.4697 8.99024 14.5378 8.66997 14.587C8.34026 14.511 8.27223 14.3316 8.46586 14.0489C8.74204 13.9778 9.01418 13.9097 9.28227 13.8448Z" fill="#313245"/>
<path opacity="0.898" fill-rule="evenodd" clip-rule="evenodd" d="M11.0635 14.8467C11.4012 14.7589 11.5682 14.8825 11.5645 15.2178C11.5353 15.2841 11.4921 15.3397 11.4346 15.3848C11.124 15.4717 10.8085 15.5397 10.4883 15.5889C10.2935 15.5859 10.1884 15.4869 10.1729 15.292C10.1949 15.2045 10.232 15.1242 10.2842 15.0508C10.5485 14.9846 10.8083 14.9165 11.0635 14.8467Z" fill="#313245"/>
<path opacity="0.922" fill-rule="evenodd" clip-rule="evenodd" d="M10.9893 19.745C11.2277 19.7298 11.3576 19.8412 11.3789 20.079C11.6056 21.2534 11.8282 22.4285 12.0469 23.6044C12.1443 23.9861 12.002 24.1407 11.6201 24.0683C11.5464 24.0193 11.5031 23.9513 11.4902 23.8642C11.2442 22.5971 11.003 21.3293 10.7666 20.0604C10.7826 19.9099 10.8568 19.8048 10.9893 19.745Z" fill="#313245"/>
<path opacity="0.928" fill-rule="evenodd" clip-rule="evenodd" d="M14.4775 19.7451C14.7693 19.7464 14.8991 19.8948 14.8672 20.1904C14.9632 21.3978 15.0683 22.6039 15.1826 23.8086C15.1048 24.0885 14.9316 24.1627 14.6631 24.0312C14.6125 23.9591 14.5816 23.8787 14.5703 23.79C14.4703 22.5587 14.3651 21.3279 14.2549 20.0977C14.26 19.9321 14.3342 19.8146 14.4775 19.7451Z" fill="#313245"/>
<path opacity="0.928" fill-rule="evenodd" clip-rule="evenodd" d="M18.3369 19.7452C18.5751 19.7422 18.6988 19.8597 18.708 20.0977C18.5978 21.328 18.4926 22.5588 18.3926 23.7901C18.349 24.0565 18.1943 24.1493 17.9287 24.0684C17.8447 24.0024 17.7952 23.9158 17.7803 23.8087C17.8946 22.6039 17.9997 21.3979 18.0957 20.1905C18.0723 19.977 18.1527 19.8285 18.3369 19.7452Z" fill="#313245"/>
<path opacity="0.922" fill-rule="evenodd" clip-rule="evenodd" d="M21.825 19.745C22.0452 19.7375 22.1689 19.8426 22.1961 20.0604C21.9597 21.3292 21.7184 22.5971 21.4724 23.8641C21.4046 24.0741 21.2623 24.1422 21.0457 24.0682C20.9777 24.0497 20.9344 24.0064 20.9158 23.9384C20.8954 23.7511 20.9077 23.5656 20.9529 23.3817C21.1691 22.2018 21.4041 21.0267 21.658 19.8563C21.7103 19.8088 21.7659 19.7717 21.825 19.745Z" fill="#313245"/>
</g>
<defs>
<clipPath id="clip0_161_250">
<rect width="19" height="19" fill="white" transform="translate(7 8)"/>
</clipPath>
</defs>
</svg>
