<svg width="35" height="34" viewBox="0 0 35 34" fill="none" xmlns="http://www.w3.org/2000/svg">
<ellipse cx="17.4089" cy="17" rx="17.1023" ry="17" fill="white"/>
<g clip-path="url(#clip0_161_265)">
<path opacity="0.896" fill-rule="evenodd" clip-rule="evenodd" d="M19.5594 10.7763C19.949 10.7666 20.1037 10.9131 20.0233 11.2158C19.883 11.3883 19.6913 11.4323 19.4481 11.3476C19.3086 11.238 19.2653 11.1061 19.3182 10.9521C19.3715 10.8659 19.4519 10.8073 19.5594 10.7763Z" fill="#313245"/>
<path opacity="0.941" fill-rule="evenodd" clip-rule="evenodd" d="M7.98145 19.0381C7.98145 18.9502 7.98145 18.8623 7.98145 18.7744C8.03882 18.6953 8.12541 18.6416 8.24121 18.6133C10.7169 18.1627 12.3744 16.9908 13.2139 15.0976C12.7593 15.2867 12.2892 15.4625 11.8037 15.625C10.647 15.9873 9.44717 16.1533 8.2041 16.123C8.11049 16.0832 8.03627 16.0295 7.98145 15.9619C7.98145 15.874 7.98145 15.7861 7.98145 15.6982C8.03882 15.6191 8.12541 15.5654 8.24121 15.5371C10.2635 15.5323 12.0633 15.0392 13.6406 14.0576C14.2892 12.735 15.4334 11.7829 17.0732 11.2011C17.3498 11.1056 17.6343 11.0275 17.9268 10.9668C18.2053 10.9424 18.3661 11.0401 18.4092 11.2597C18.4034 11.3471 18.3662 11.4252 18.2979 11.4941C16.4826 11.9216 15.19 12.8151 14.4199 14.1748C14.1916 14.6909 13.9689 15.2085 13.752 15.7275C12.7141 17.626 10.9143 18.7881 8.35254 19.2138C8.18099 19.2146 8.05729 19.156 7.98145 19.0381Z" fill="#313245"/>
<path opacity="0.944" fill-rule="evenodd" clip-rule="evenodd" d="M26.9814 16.5478C26.9814 16.6357 26.9814 16.7236 26.9814 16.8115C26.9266 16.8791 26.8524 16.9328 26.7588 16.9726C25.9753 17.0331 25.2702 17.2479 24.6435 17.6172C22.9771 18.9758 21.0474 19.2688 18.8545 18.4961C17.1996 17.7433 16.5131 16.6154 16.7949 15.1123C16.9684 14.4622 17.358 13.9104 17.9639 13.457C18.8606 12.9344 19.8007 12.8758 20.7842 13.2812C21.4509 13.7116 21.655 14.2536 21.3965 14.9072C21.2959 15.084 21.166 15.2451 21.0068 15.3906C20.8137 15.5108 20.6034 15.6085 20.376 15.6836C21.2177 15.8657 21.9042 15.685 22.4355 15.1416C23.0671 14.4394 23.1785 13.6875 22.7695 12.8857C22.5167 12.4912 22.1642 12.1641 21.7119 11.9043C21.4737 11.7883 21.2325 11.676 20.9883 11.5674C20.8297 11.2235 20.9843 11.0623 21.4521 11.084C23.4042 11.8568 24.1155 13.0824 23.5859 14.7607C22.9329 16.0804 21.7392 16.5736 20.0049 16.2402C19.3841 16.0311 18.9883 15.6697 18.8174 15.1562C18.8735 14.907 19.0591 14.8093 19.374 14.8632C19.7968 15.1682 20.1988 15.1536 20.5801 14.8193C20.8705 14.3158 20.7035 13.9398 20.0791 13.6914C19.1021 13.5319 18.3785 13.8004 17.9082 14.497C17.3785 15.3423 17.3908 16.1821 17.9453 17.0166C18.809 17.9506 19.9779 18.3754 21.4521 18.291C22.2339 18.2167 22.9266 17.9823 23.5303 17.5879C24.3553 16.8715 25.382 16.4663 26.6103 16.372C26.7722 16.3868 26.8959 16.4454 26.9814 16.5478Z" fill="#313245"/>
<path opacity="0.939" fill-rule="evenodd" clip-rule="evenodd" d="M14.5127 17.4854C14.736 17.4479 14.9154 17.4967 15.0507 17.6318C15.1057 18.7403 15.8046 19.4483 17.1474 19.7559C17.4005 19.7728 17.6479 19.807 17.8896 19.8584C18.095 20.0389 18.0826 20.2098 17.8525 20.3711C16.2833 20.4228 15.1762 19.8808 14.5312 18.7451C14.3488 18.3864 14.287 18.0154 14.3457 17.6318C14.3963 17.5773 14.452 17.5285 14.5127 17.4854Z" fill="#313245"/>
<path opacity="0.938" fill-rule="evenodd" clip-rule="evenodd" d="M26.9815 18.6571C26.9815 18.7059 26.9815 18.7548 26.9815 18.8036C26.9374 18.8579 26.8879 18.9116 26.8331 18.9647C26.3425 19.2444 25.8849 19.5569 25.4601 19.9022C24.1869 20.6897 22.7397 21.0608 21.1183 21.0155C20.8821 20.8884 20.8388 20.7272 20.9884 20.5321C21.0219 20.4969 21.0652 20.4725 21.1183 20.4589C22.4694 20.4451 23.6941 20.1326 24.7921 19.5214C25.1866 19.2588 25.5701 18.9853 25.9425 18.7011C26.1033 18.6132 26.2641 18.5253 26.4249 18.4374C26.7014 18.379 26.8869 18.4523 26.9815 18.6571Z" fill="#313245"/>
<path opacity="0.942" fill-rule="evenodd" clip-rule="evenodd" d="M26.9814 22.9933C26.9814 23.0909 26.9814 23.1886 26.9814 23.2862C26.0167 24.0559 24.8539 24.3342 23.4932 24.1212C22.7157 23.9658 22.0601 23.6533 21.5264 23.1837C20.3512 22.5392 19.1761 22.5392 18.001 23.1837C16.7819 24.1848 15.347 24.4388 13.6963 23.9454C13.2038 23.7558 12.7709 23.5019 12.3975 23.1837C11.3803 22.612 10.3165 22.5534 9.20605 23.0079C9.00019 23.104 8.81464 23.2212 8.64941 23.3595C8.3997 23.4958 8.17704 23.4714 7.98145 23.2862C7.98145 23.1886 7.98145 23.0909 7.98145 22.9933C9.18225 22.082 10.5677 21.8623 12.1377 22.3341C12.3541 22.4244 12.5644 22.522 12.7686 22.6271C13.0778 22.8321 13.3871 23.0372 13.6963 23.2423C15.1249 23.8128 16.3866 23.637 17.4814 22.715C18.6508 22.0405 19.9126 21.9135 21.2666 22.3341C21.483 22.4244 21.6933 22.522 21.8975 22.6271C22.2067 22.8321 22.516 23.0372 22.8252 23.2423C24.1413 23.7869 25.3412 23.6599 26.4248 22.8614C26.6533 22.8103 26.8389 22.8542 26.9814 22.9933Z" fill="#313245"/>
</g>
<defs>
<clipPath id="clip0_161_265">
<rect width="19" height="15" fill="white" transform="translate(8 10)"/>
</clipPath>
</defs>
</svg>
