<svg width="35" height="34" viewBox="0 0 35 34" fill="none" xmlns="http://www.w3.org/2000/svg">
<ellipse cx="17.3938" cy="17" rx="17.1023" ry="17" fill="white"/>
<g clip-path="url(#clip0_161_259)">
<path opacity="0.959" fill-rule="evenodd" clip-rule="evenodd" d="M17.1845 7.2784C17.5554 7.23024 17.9017 7.29827 18.2235 7.4825C19.1884 8.12573 20.1532 8.76896 21.118 9.41219C21.2912 9.86987 21.1428 10.0307 20.6727 9.89461C19.6886 9.21086 18.6866 8.55526 17.6669 7.92781C17.4726 7.89155 17.2871 7.91629 17.1102 8.00203C14.8095 9.53588 12.5087 11.0698 10.2079 12.6036C11.3954 12.6283 12.5829 12.6283 13.7704 12.6036C14.7167 11.4594 15.663 10.3152 16.6093 9.17098C16.7628 9.04743 16.9298 9.02888 17.1102 9.11531C17.2009 9.26569 17.2071 9.42032 17.1288 9.57918C16.2947 10.5976 15.4474 11.6058 14.5868 12.6036C16.5165 12.6283 18.4462 12.6283 20.3759 12.6036C19.5153 11.6058 18.668 10.5976 17.8339 9.57918C17.6855 9.1882 17.8154 9.02121 18.2235 9.0782C18.2766 9.09547 18.3199 9.12639 18.3534 9.17098C19.2997 10.3152 20.246 11.4594 21.1923 12.6036C22.3798 12.6283 23.5673 12.6283 24.7548 12.6036C23.8394 11.9975 22.924 11.3913 22.0087 10.7852C21.8743 10.6347 21.8681 10.4801 21.9901 10.3214C22.1405 10.2307 22.2951 10.2245 22.454 10.3028C23.6415 11.0945 24.829 11.8862 26.0165 12.6778C26.0397 12.7056 26.0583 12.7366 26.0721 12.7706C26.0969 13.4633 26.0969 14.156 26.0721 14.8487C26.0583 14.8827 26.0397 14.9137 26.0165 14.9415C25.5959 15.1518 25.1753 15.362 24.7548 15.5723C24.6558 15.5971 24.5569 15.5971 24.4579 15.5723C24.1159 15.3951 23.7695 15.2282 23.4188 15.0714C23.186 15.163 22.9633 15.2744 22.7509 15.4054C23.3666 16.2038 23.9913 16.9954 24.6249 17.7803C25.5017 17.487 26.1574 17.7468 26.5917 18.5596C26.8694 19.4468 26.6034 20.1086 25.7938 20.545C24.9871 20.808 24.3501 20.5916 23.8827 19.8956C23.8333 19.5368 23.9879 19.3946 24.3466 19.4688C24.5019 19.7109 24.7122 19.8841 24.9774 19.9884C25.5009 20.0762 25.8534 19.8721 26.035 19.3761C26.105 18.7468 25.8267 18.3757 25.2001 18.2628C24.8204 18.3148 24.536 18.5065 24.3466 18.838C23.9879 18.9122 23.8333 18.7699 23.8827 18.4112C23.9507 18.3184 24.0188 18.2257 24.0868 18.1329C23.3941 17.267 22.7014 16.4011 22.0087 15.5352C21.6914 15.3704 21.3698 15.2158 21.0438 15.0714C20.9471 15.095 20.8605 15.1383 20.7841 15.2012C20.9677 16.4186 21.1533 17.637 21.3407 18.8565C22.3589 19.1981 22.7238 19.8908 22.4354 20.9346C21.995 21.7454 21.3332 22.0114 20.4501 21.7325C19.6108 21.2687 19.3573 20.5822 19.6893 19.6729C19.8957 19.2577 20.2234 18.9979 20.6727 18.8936C20.5316 17.7508 20.3646 16.6128 20.1718 15.4796C20.0322 15.5814 19.8776 15.6123 19.7079 15.5723C19.3863 15.4115 19.0647 15.2507 18.743 15.0899C18.6218 15.0758 18.5104 15.1068 18.4091 15.1827C18.372 17.6936 18.3596 20.2047 18.372 22.7159C18.6691 22.7097 18.966 22.7159 19.2626 22.7345C19.7264 22.852 20.0171 23.1427 20.1346 23.6065C20.1531 23.7047 20.1593 23.8037 20.1532 23.9034C20.945 23.8972 21.7366 23.9034 22.5282 23.922C22.9921 24.0395 23.2827 24.3302 23.4003 24.794C23.425 25.0414 23.425 25.2888 23.4003 25.5362C23.3864 25.5702 23.3678 25.6012 23.3446 25.629C22.7295 25.6897 22.111 25.7021 21.4891 25.6661C21.3772 25.6094 21.3278 25.5166 21.3407 25.3878C21.3278 25.259 21.3772 25.1662 21.4891 25.1095C21.9219 25.0909 22.3549 25.0847 22.788 25.0909C22.7612 24.7486 22.5756 24.5569 22.2313 24.5157C19.0647 24.4909 15.898 24.4909 12.7313 24.5157C12.387 24.5569 12.2015 24.7486 12.1747 25.0909C14.9826 25.0847 17.7906 25.0909 20.5985 25.1095C20.7104 25.1662 20.7599 25.259 20.747 25.3878C20.7599 25.5166 20.7104 25.6094 20.5985 25.6661C17.6298 25.6908 14.661 25.6908 11.6923 25.6661C11.6242 25.6475 11.5809 25.6042 11.5624 25.5362C11.4281 24.9369 11.5951 24.4483 12.0634 24.0704C12.1811 24.0064 12.3048 23.9569 12.4345 23.922C13.226 23.9034 14.0177 23.8972 14.8095 23.9034C14.8011 23.4687 14.9742 23.1285 15.329 22.8829C15.4468 22.8189 15.5705 22.7694 15.7001 22.7345C15.9967 22.7159 16.2936 22.7097 16.5907 22.7159C16.6031 20.2047 16.5907 17.6936 16.5536 15.1827C16.4522 15.1068 16.3409 15.0758 16.2196 15.0899C15.898 15.2507 15.5764 15.4115 15.2548 15.5723C15.0851 15.6123 14.9305 15.5814 14.7909 15.4796C14.5981 16.6128 14.4311 17.7508 14.2899 18.8936C14.6716 18.9221 14.8386 19.12 14.7909 19.4874C14.7196 19.5752 14.6268 19.6247 14.5126 19.6358C14.3192 19.559 14.1213 19.4971 13.9188 19.4503C13.1488 19.6298 12.9076 20.0874 13.1952 20.8233C13.5326 21.2191 13.9346 21.2995 14.4012 21.0645C14.4817 20.9841 14.562 20.9037 14.6425 20.8233C14.7326 20.5844 14.8131 20.3432 14.8837 20.0997C15.2331 19.9523 15.4062 20.0636 15.4032 20.4337C15.3436 21.1614 14.9601 21.6191 14.2528 21.8067C13.4997 21.9314 12.9369 21.6655 12.5643 21.0089C12.2414 20.1408 12.4703 19.4667 13.2509 18.9864C13.371 18.9325 13.4947 18.8892 13.622 18.8565C13.8094 17.637 13.9949 16.4186 14.1786 15.2012C14.1021 15.1383 14.0156 15.095 13.9188 15.0714C13.5471 15.2232 13.1946 15.4087 12.8612 15.628C12.1994 16.463 11.5376 17.2979 10.8759 18.1329C11.2595 18.6162 11.3523 19.1543 11.1542 19.7471C10.6451 20.6631 9.90915 20.9043 8.94617 20.4708C8.28931 19.9969 8.08521 19.3722 8.33386 18.5968C8.6007 17.996 9.06457 17.6744 9.72547 17.6319C9.93996 17.6456 10.1441 17.6951 10.3378 17.7803C10.9714 16.9954 11.5961 16.2038 12.2118 15.4054C11.9993 15.2744 11.7766 15.163 11.5438 15.0714C11.1931 15.2282 10.8468 15.3951 10.5048 15.5723C10.4058 15.5971 10.3068 15.5971 10.2079 15.5723C9.78732 15.362 9.36674 15.1518 8.94617 14.9415C8.92295 14.9137 8.90439 14.8827 8.89051 14.8487C8.86576 14.156 8.86576 13.4633 8.89051 12.7706C8.90439 12.7366 8.92295 12.7056 8.94617 12.6778C11.5438 10.946 14.1415 9.21427 16.7391 7.4825C16.8869 7.40227 17.0353 7.33424 17.1845 7.2784ZM9.4657 13.2159C10.0595 13.2159 10.6532 13.2159 11.247 13.2159C11.2593 13.6496 11.2469 14.0825 11.2098 14.5147C10.9297 14.661 10.6452 14.7971 10.3563 14.9229C10.0675 14.7971 9.78299 14.661 9.50281 14.5147C9.46574 14.0825 9.45337 13.6496 9.4657 13.2159ZM11.8407 13.2159C12.4345 13.2159 13.0282 13.2159 13.622 13.2159C13.6343 13.6496 13.6219 14.0825 13.5848 14.5147C13.3047 14.661 13.0201 14.7971 12.7313 14.9229C12.4425 14.7971 12.158 14.661 11.8778 14.5147C11.8407 14.0825 11.8284 13.6496 11.8407 13.2159ZM14.2157 13.2159C14.8095 13.2159 15.4032 13.2159 15.997 13.2159C16.0093 13.6496 15.9969 14.0825 15.9598 14.5147C15.6797 14.661 15.3951 14.7971 15.1063 14.9229C14.8175 14.7971 14.533 14.661 14.2528 14.5147C14.2157 14.0825 14.2034 13.6496 14.2157 13.2159ZM16.5907 13.2159C17.1845 13.2159 17.7782 13.2159 18.372 13.2159C18.3843 13.6496 18.3719 14.0825 18.3348 14.5147C18.0547 14.661 17.7701 14.7971 17.4813 14.9229C17.1925 14.7971 16.908 14.661 16.6278 14.5147C16.5907 14.0825 16.5784 13.6496 16.5907 13.2159ZM18.9657 13.2159C19.5595 13.2159 20.1532 13.2159 20.747 13.2159C20.7593 13.6496 20.7469 14.0825 20.7098 14.5147C20.4297 14.661 20.1451 14.7971 19.8563 14.9229C19.5675 14.7971 19.283 14.661 19.0028 14.5147C18.9657 14.0825 18.9534 13.6496 18.9657 13.2159ZM21.3407 13.2159C21.9345 13.2159 22.5282 13.2159 23.122 13.2159C23.1343 13.6496 23.1219 14.0825 23.0848 14.5147C22.8047 14.661 22.5201 14.7971 22.2313 14.9229C21.9425 14.7971 21.658 14.661 21.3778 14.5147C21.3407 14.0825 21.3284 13.6496 21.3407 13.2159ZM23.7157 13.2159C24.3095 13.2159 24.9032 13.2159 25.497 13.2159C25.5093 13.6496 25.4969 14.0825 25.4598 14.5147C25.1797 14.661 24.8951 14.7971 24.6063 14.9229C24.3175 14.7971 24.033 14.661 23.7528 14.5147C23.7157 14.0825 23.7034 13.6496 23.7157 13.2159ZM17.1845 15.5167C17.3701 15.6126 17.5557 15.6126 17.7411 15.5167C17.7782 17.9163 17.7906 20.316 17.7782 22.7159C17.5803 22.7159 17.3824 22.7159 17.1845 22.7159C17.1845 20.3161 17.1845 17.9164 17.1845 15.5167ZM9.53992 18.2999C10.0629 18.2303 10.4155 18.4406 10.5975 18.9307C10.6853 19.4542 10.4812 19.8067 9.98523 19.9884C9.46178 20.0762 9.10924 19.8721 8.92761 19.3761C8.84446 18.8493 9.04856 18.4905 9.53992 18.2999ZM20.8212 19.4874C21.3442 19.4178 21.6967 19.6281 21.8788 20.1182C21.9666 20.6417 21.7625 20.9942 21.2665 21.1759C20.743 21.2637 20.3905 21.0596 20.2089 20.5636C20.1257 20.0368 20.3298 19.678 20.8212 19.4874ZM15.997 23.3096C16.9866 23.3034 17.9762 23.3096 18.9657 23.3282C19.31 23.3694 19.4955 23.5611 19.5223 23.9034C18.1617 23.9034 16.801 23.9034 15.4403 23.9034C15.4738 23.5607 15.6594 23.3628 15.997 23.3096Z" fill="#313245"/>
</g>
<defs>
<clipPath id="clip0_161_259">
<rect width="19" height="19" fill="white" transform="translate(8 7)"/>
</clipPath>
</defs>
</svg>
