<svg width="35" height="34" viewBox="0 0 35 34" fill="none" xmlns="http://www.w3.org/2000/svg">
<ellipse cx="17.3938" cy="17" rx="17.1023" ry="17" fill="white"/>
<g clip-path="url(#clip0_161_267)">
<path opacity="0.945" fill-rule="evenodd" clip-rule="evenodd" d="M11.2166 7.98242C11.4861 7.98242 11.7556 7.98242 12.0252 7.98242C13.0992 8.25376 13.7496 8.93345 13.9763 10.0215C13.9939 10.6776 13.9998 11.3339 13.9939 11.9902C16.2088 11.9902 18.4236 11.9902 20.6385 11.9902C20.6533 11.3091 20.6357 10.6294 20.5857 9.95117C20.3351 9.16156 19.796 8.73968 18.9685 8.68555C17.8964 8.82028 17.3339 9.42965 17.281 10.5137C17.0964 10.7589 16.8855 10.7823 16.6482 10.584C16.5301 9.58381 16.8993 8.81623 17.7556 8.28125C18.0151 8.14217 18.2846 8.04256 18.5642 7.98242C18.8338 7.98242 19.1033 7.98242 19.3728 7.98242C20.4231 8.2182 21.0735 8.86273 21.324 9.91602C21.3762 13.8761 21.3938 17.8371 21.3767 21.7988C22.3758 21.7924 23.3367 21.599 24.2596 21.2188C24.6868 21.0227 25.1087 20.8176 25.5252 20.6035C25.7236 20.6139 25.876 20.6959 25.9822 20.8496C25.9822 20.9199 25.9822 20.9902 25.9822 21.0605C25.9371 21.1438 25.8785 21.22 25.8064 21.2891C23.5035 22.6202 21.0777 22.8897 18.5291 22.0977C17.2366 21.6808 15.9241 21.3409 14.5916 21.0781C12.6978 20.784 10.94 21.1473 9.31814 22.168C9.09549 22.3203 8.87283 22.4727 8.65018 22.625C8.43788 22.7589 8.24452 22.7413 8.0701 22.5723C7.99318 22.3943 8.01661 22.2302 8.14041 22.0801C9.32683 21.1794 10.6569 20.5994 12.1306 20.3398C12.516 20.2904 12.9027 20.2611 13.2908 20.252C13.2967 16.9355 13.2908 13.6191 13.2732 10.3027C13.1491 9.31726 12.5924 8.7782 11.6033 8.68555C10.8451 8.73881 10.3236 9.11381 10.0388 9.81055C9.97922 10.0543 9.93235 10.3004 9.89822 10.5488C9.72098 10.7506 9.52176 10.7741 9.30057 10.6191C9.16957 9.60941 9.53871 8.83012 10.408 8.28125C10.6674 8.14217 10.937 8.04256 11.2166 7.98242ZM13.9939 12.6934C16.2088 12.6934 18.4236 12.6934 20.6385 12.6934C20.6385 13.9355 20.6385 15.1777 20.6385 16.4199C18.4236 16.4199 16.2088 16.4199 13.9939 16.4199C13.9939 15.1777 13.9939 13.9355 13.9939 12.6934ZM13.9939 17.1582C16.2205 17.1582 18.4471 17.1582 20.6736 17.1582C20.6736 18.6934 20.6736 20.2285 20.6736 21.7637C20.1648 21.7062 19.6608 21.6183 19.1619 21.5C18.033 21.1562 16.8962 20.8398 15.7517 20.5508C15.1725 20.4093 14.5866 20.3097 13.9939 20.252C13.9939 19.2207 13.9939 18.1894 13.9939 17.1582Z" fill="#313245"/>
<path opacity="0.946" fill-rule="evenodd" clip-rule="evenodd" d="M8.47461 25.9823C8.38086 25.9823 8.28711 25.9823 8.19336 25.9823C8.10556 25.8999 8.03525 25.8061 7.98242 25.7011C7.98242 25.6425 7.98242 25.5839 7.98242 25.5253C8.01905 25.4466 8.06593 25.3704 8.12305 25.2968C9.24087 24.4685 10.4831 23.906 11.8496 23.6093C13.0278 23.4229 14.1997 23.4581 15.3652 23.7147C16.7377 24.0842 18.1088 24.4592 19.4785 24.8397C21.1241 25.2445 22.7296 25.1273 24.2949 24.4882C24.7051 24.2831 25.1152 24.078 25.5254 23.8729C25.8175 23.9128 25.9406 24.0769 25.8945 24.3651C25.8635 24.4566 25.8108 24.5328 25.7363 24.5936C23.9265 25.6751 21.9812 26.0384 19.9004 25.6835C19.3329 25.5768 18.7704 25.4479 18.2129 25.2968C16.9567 24.886 15.6794 24.5579 14.3809 24.3124C12.6936 24.0709 11.1116 24.3756 9.63477 25.2265C9.24188 25.4736 8.85517 25.7255 8.47461 25.9823Z" fill="#313245"/>
</g>
<defs>
<clipPath id="clip0_161_267">
<rect width="18" height="18" fill="white" transform="translate(8 8)"/>
</clipPath>
</defs>
</svg>
