<svg width="35" height="34" viewBox="0 0 35 34" fill="none" xmlns="http://www.w3.org/2000/svg">
<ellipse cx="17.4089" cy="17" rx="17.1023" ry="17" fill="white"/>
<path opacity="0.931" fill-rule="evenodd" clip-rule="evenodd" d="M14.229 10.0047C15.7232 9.99225 17.2172 10.0047 18.711 10.0418C19.097 10.1779 19.3584 10.4377 19.4953 10.8213C19.5327 12.0089 19.5452 13.1967 19.5327 14.3848C20.7281 14.3724 21.9233 14.3848 23.1183 14.4219C23.5043 14.558 23.7657 14.8178 23.9026 15.2014C23.9525 16.6862 23.9525 18.171 23.9026 19.6557C23.7657 20.0393 23.5043 20.2992 23.1183 20.4352C21.9233 20.4724 20.7281 20.4848 19.5327 20.4724C19.5452 21.6604 19.5327 22.8482 19.4953 24.0358C19.3584 24.4194 19.097 24.6793 18.711 24.8154C17.217 24.8649 15.723 24.8649 14.229 24.8154C13.843 24.6793 13.5816 24.4194 13.4447 24.0358C13.4073 22.8482 13.3948 21.6604 13.4073 20.4724C12.2119 20.4848 11.0167 20.4724 9.82172 20.4352C9.43574 20.2992 9.17429 20.0393 9.03737 19.6557C8.98754 18.171 8.98754 16.6862 9.03737 15.2014C9.17429 14.8178 9.43574 14.558 9.82172 14.4219C11.0167 14.3848 12.2119 14.3724 13.4073 14.3848C13.3948 13.1967 13.4073 12.0089 13.4447 10.8213C13.5956 10.4364 13.857 10.1641 14.229 10.0047ZM14.5278 11.1182C14.5403 12.4548 14.5278 13.7911 14.4905 15.1271C14.4557 15.2334 14.3934 15.3199 14.3037 15.387C12.9163 15.4964 11.5219 15.5335 10.1205 15.4983C10.1205 16.7851 10.1205 18.072 10.1205 19.3588C11.4653 19.3464 12.8099 19.3588 14.1543 19.3959C14.2612 19.4304 14.3483 19.4923 14.4158 19.5815C14.5259 20.9603 14.5632 22.3462 14.5278 23.7389C15.8226 23.7389 17.1174 23.7389 18.4122 23.7389C18.3997 22.4024 18.4122 21.0661 18.4495 19.73C18.4843 19.6237 18.5466 19.5372 18.6363 19.4701C20.0237 19.3607 21.4181 19.3236 22.8195 19.3588C22.8195 18.072 22.8195 16.7851 22.8195 15.4983C21.4747 15.5107 20.1301 15.4983 18.7857 15.4612C18.6788 15.4267 18.5917 15.3648 18.5242 15.2756C18.4141 13.8968 18.3768 12.511 18.4122 11.1182C17.1174 11.1182 15.8226 11.1182 14.5278 11.1182Z" fill="#313245" fill-opacity="0.7"/>
</svg>
