<svg width="35" height="34" viewBox="0 0 35 34" fill="none" xmlns="http://www.w3.org/2000/svg">
<ellipse cx="17.3938" cy="17" rx="17.1023" ry="17" fill="white"/>
<g clip-path="url(#clip0_161_261)">
<path opacity="0.928" fill-rule="evenodd" clip-rule="evenodd" d="M21.0086 6.0555C21.5277 5.98779 21.9978 6.10458 22.4187 6.40586C22.9925 6.8775 23.4563 7.43686 23.8103 8.08393C25.1365 10.5654 25.8292 13.2085 25.8884 16.0132C25.5667 17.9189 24.4843 19.179 22.6414 19.7935C22.3257 19.8845 22.0041 19.9398 21.6765 19.9594C21.6765 21.5699 21.6765 23.1803 21.6765 24.7908C21.4539 24.7908 21.2312 24.7908 21.0086 24.7908C21.0086 23.1803 21.0086 21.5699 21.0086 19.9594C19.0722 19.7383 17.7424 18.7302 17.0193 16.9352C16.849 16.4391 16.7686 15.929 16.7781 15.4047C16.9508 13.1931 17.4889 11.0725 18.3923 9.04282C18.7165 8.31165 19.1247 7.63551 19.617 7.01439C19.9879 6.5523 20.4517 6.23266 21.0086 6.0555ZM21.157 6.68247C21.551 6.66329 21.8974 6.78008 22.1961 7.03283C22.8053 7.63472 23.2816 8.3293 23.6248 9.11658C24.4695 10.9749 25.0138 12.9173 25.2576 14.9437C25.3776 16.6786 24.691 17.9879 23.198 18.8715C22.7212 19.1073 22.2202 19.261 21.6951 19.3325C21.6703 18.1646 21.6703 16.9967 21.6951 15.8288C22.1657 15.3673 22.6295 14.9001 23.0867 14.4274C22.9506 14.2676 22.8022 14.12 22.6414 13.9848C22.3203 14.2855 22.0049 14.5928 21.6951 14.9068C21.6765 14.366 21.6703 13.8251 21.6765 13.2841C21.4539 13.2841 21.2312 13.2841 21.0086 13.2841C21.0148 14.6364 21.0086 15.9887 20.99 17.3409C20.6684 17.0213 20.3468 16.7017 20.0252 16.382C19.8688 16.5251 19.7265 16.6787 19.5984 16.843C20.0484 17.3271 20.5122 17.8004 20.99 18.2629C21.0148 18.6195 21.0148 18.976 20.99 19.3325C19.0739 19.0264 17.8988 17.9323 17.4646 16.0501C17.3924 15.4833 17.4048 14.9178 17.5017 14.3536C17.8252 12.2705 18.4685 10.2912 19.4314 8.41585C19.7003 7.91491 20.0404 7.46619 20.4519 7.06971C20.6682 6.90093 20.9032 6.77184 21.157 6.68247Z" fill="#313245"/>
<path opacity="0.965" fill-rule="evenodd" clip-rule="evenodd" d="M7.64941 19.6274C7.8597 19.6274 8.06999 19.6274 8.28027 19.6274C8.28027 19.8364 8.28027 20.0454 8.28027 20.2544C10.7048 20.2544 13.1292 20.2544 15.5537 20.2544C15.5537 20.0454 15.5537 19.8364 15.5537 19.6274C15.764 19.6274 15.9743 19.6274 16.1846 19.6274C16.1846 20.8445 16.1846 22.0616 16.1846 23.2786C16.3949 23.2786 16.6051 23.2786 16.8154 23.2786C16.8154 23.4876 16.8154 23.6966 16.8154 23.9056C16.6051 23.9056 16.3949 23.9056 16.1846 23.9056C16.1846 24.2006 16.1846 24.4957 16.1846 24.7907C15.9743 24.7907 15.764 24.7907 15.5537 24.7907C15.5537 24.4957 15.5537 24.2006 15.5537 23.9056C13.1292 23.9056 10.7048 23.9056 8.28027 23.9056C8.28027 24.2006 8.28027 24.4957 8.28027 24.7907C8.06999 24.7907 7.8597 24.7907 7.64941 24.7907C7.64941 24.4957 7.64941 24.2006 7.64941 23.9056C7.4515 23.9056 7.25358 23.9056 7.05566 23.9056C7.05566 23.6966 7.05566 23.4876 7.05566 23.2786C7.25358 23.2786 7.4515 23.2786 7.64941 23.2786C7.64941 22.0616 7.64941 20.8445 7.64941 19.6274ZM8.28027 20.8814C10.7048 20.8814 13.1292 20.8814 15.5537 20.8814C15.5537 21.1764 15.5537 21.4715 15.5537 21.7665C13.1292 21.7665 10.7048 21.7665 8.28027 21.7665C8.28027 21.4715 8.28027 21.1764 8.28027 20.8814ZM8.28027 22.3935C10.7048 22.3935 13.1292 22.3935 15.5537 22.3935C15.5537 22.6885 15.5537 22.9836 15.5537 23.2786C13.1292 23.2786 10.7048 23.2786 8.28027 23.2786C8.28027 22.9836 8.28027 22.6885 8.28027 22.3935Z" fill="#313245"/>
</g>
<defs>
<clipPath id="clip0_161_261">
<rect width="19" height="18.8828" fill="white" transform="translate(7 6)"/>
</clipPath>
</defs>
</svg>
