<svg width="3" height="6" viewBox="0 0 3 6" fill="none" xmlns="http://www.w3.org/2000/svg">
<path d="M3 3.01261C3 3.07143 2.97963 3.12395 2.93889 3.17017L0.55 5.90546C0.505556 5.96849 0.45 6 0.383333 6C0.331481 6 0.285185 5.97689 0.244444 5.93067L0.0444445 5.69748C0.0148148 5.66387 0 5.62605 0 5.58403C0 5.52941 0.0333333 5.46429 0.1 5.38866L2.16667 3.01891L0.127778 0.642858C0.0611111 0.567227 0.0277779 0.502101 0.0277779 0.447479C0.0277779 0.405462 0.0481482 0.361345 0.088889 0.315126L0.311111 0.0630259C0.348148 0.0210086 0.383333 0 0.416667 0C0.438889 0 0.462963 0.0126051 0.488889 0.0378154C0.518519 0.0630256 0.548148 0.0924375 0.577778 0.126051L2.91111 2.81092C2.97037 2.87815 3 2.94538 3 3.01261Z" fill="white"/>
</svg>
