<svg width="15" height="17" viewBox="0 0 15 17" fill="none" xmlns="http://www.w3.org/2000/svg">
<path d="M13.6991 0.280059L2.35914 16.0001H1.31914L12.6591 0.280059H13.6991ZM3.25914 7.36006C2.53914 7.36006 1.91914 7.04006 1.39914 6.40006C0.879141 5.76006 0.619141 4.86673 0.619141 3.72006C0.619141 2.58673 0.885807 1.69339 1.41914 1.04006C1.95247 0.386725 2.56581 0.0600586 3.25914 0.0600586C3.99247 0.0600586 4.61247 0.373392 5.11914 1.00006C5.63914 1.61339 5.89914 2.47339 5.89914 3.58006C5.89914 4.78006 5.64581 5.71339 5.13914 6.38006C4.63247 7.03339 4.00581 7.36006 3.25914 7.36006ZM4.09914 6.62006C4.52581 5.98006 4.69247 5.00006 4.59914 3.68006C4.51914 2.46673 4.25914 1.62673 3.81914 1.16006C3.39247 0.693392 2.93247 0.586726 2.43914 0.840059C2.01247 1.52006 1.83914 2.50673 1.91914 3.80006C1.99914 5.00006 2.25914 5.84006 2.69914 6.32006C3.13914 6.78673 3.60581 6.88673 4.09914 6.62006ZM11.7591 16.2001C11.0391 16.2001 10.4191 15.8801 9.89914 15.2401C9.37914 14.6001 9.11914 13.7067 9.11914 12.5601C9.11914 11.4267 9.38581 10.5334 9.91914 9.88006C10.4525 9.22672 11.0658 8.90006 11.7591 8.90006C12.4925 8.90006 13.1125 9.21339 13.6191 9.84006C14.1391 10.4534 14.3991 11.3134 14.3991 12.4201C14.3991 13.6201 14.1458 14.5534 13.6391 15.2201C13.1325 15.8734 12.5058 16.2001 11.7591 16.2001ZM12.5991 15.4601C13.0258 14.8201 13.1925 13.8401 13.0991 12.5201C13.0191 11.3067 12.7591 10.4667 12.3191 10.0001C11.8925 9.53339 11.4325 9.42673 10.9391 9.68006C10.5125 10.3601 10.3391 11.3467 10.4191 12.6401C10.4991 13.8401 10.7591 14.6801 11.1991 15.1601C11.6391 15.6267 12.1058 15.7267 12.5991 15.4601Z" fill="#313245"/>
</svg>
