<svg width="19" height="15" viewBox="0 0 19 15" fill="none" xmlns="http://www.w3.org/2000/svg">
<path d="M18.6663 3.11607C18.5948 3.1114 18.5232 3.0974 18.4564 3.0974C14.3347 3.0974 10.2177 3.0974 6.09587 3.09274C5.93367 3.09274 5.86688 3.13007 5.82872 3.29809C5.53771 4.56287 4.42617 5.43561 3.11426 5.43094C1.80712 5.43094 0.695574 4.54887 0.399798 3.28875C0.0515459 1.78595 1.12493 0.250483 2.68491 0.0311302C4.18287 -0.178889 5.49955 0.707857 5.83826 2.16399C5.86688 2.29 5.90982 2.332 6.04339 2.332C10.1986 2.32733 14.3537 2.32733 18.5089 2.32733C18.5614 2.32733 18.6139 2.318 18.6663 2.30867C18.6663 2.57936 18.6663 2.84538 18.6663 3.11607ZM3.1238 4.65621C4.22103 4.65154 5.10836 3.7788 5.10359 2.70537C5.10359 1.62261 4.20672 0.763862 3.0904 0.768529C2.00748 0.773196 1.12493 1.65061 1.1297 2.71937C1.13447 3.7928 2.02657 4.66088 3.1238 4.65621Z" fill="#313245"/>
<path d="M18.6659 12.6693C18.1936 12.6693 17.7261 12.6646 17.2538 12.6646C15.7082 12.6646 14.1673 12.6646 12.6216 12.6646C12.55 12.6646 12.4785 12.6646 12.3974 12.6646C12.2543 13.458 11.8631 14.0927 11.1857 14.5408C10.6895 14.8721 10.1314 15.0168 9.53027 14.9981C8.309 14.9561 7.14021 14.1021 6.8826 12.6693C4.71198 12.6693 2.54137 12.6693 0.356445 12.6693C0.356445 12.4079 0.356445 12.1652 0.356445 11.9039C2.52706 11.9039 4.69767 11.9039 6.86829 11.9039C6.9303 11.6985 6.97324 11.5025 7.0448 11.3205C7.47415 10.2004 8.62863 9.47231 9.8165 9.56565C11.0855 9.66366 12.1159 10.5364 12.3592 11.7358C12.3878 11.8712 12.4356 11.8992 12.5644 11.8992C14.5251 11.8945 16.4858 11.8945 18.4465 11.8992C18.518 11.8992 18.5896 11.9039 18.6612 11.9039C18.6659 12.1559 18.6659 12.4126 18.6659 12.6693ZM9.64476 14.2281C10.7515 14.2187 11.6293 13.3507 11.6246 12.2772C11.6198 11.1991 10.7277 10.3264 9.63522 10.3357C8.53322 10.3404 7.64112 11.2318 7.65066 12.3099C7.6602 13.36 8.56661 14.2374 9.64476 14.2281Z" fill="#313245"/>
</svg>
