<svg width="52" height="17" viewBox="0 0 52 17" fill="none" xmlns="http://www.w3.org/2000/svg">
<path d="M49.0761 4.47368C49.6876 4.47368 50.3501 4.81454 51.0636 5.49624C51.777 6.09273 52.0828 6.64662 51.9809 7.1579C51.9809 7.66918 51.879 8.13785 51.6751 8.56391C51.4713 8.98998 50.9107 9.7569 49.9934 10.8647C49.0761 11.9724 48.0568 12.9524 46.9357 13.8045C43.878 15.9348 40.0559 17 35.4693 17C32.8193 16.6591 27.927 15.2957 20.7924 12.9098C13.6577 10.4386 9.47887 9.1604 8.25579 9.07519C7.03271 8.98998 6.01348 9.24561 5.19809 9.84211C4.48463 10.3534 3.77116 10.609 3.0577 10.609C2.34424 10.5238 1.63077 10.2256 0.917309 9.71429C0.30577 9.20301 0 8.60652 0 7.92481V7.797C1.325 5.58146 3.36347 3.74938 6.1154 2.30075C8.86733 0.766918 11.5173 0 14.0654 0C16.6135 0 21.7606 1.19298 29.5068 3.57895C37.3549 5.96492 42.0434 7.1579 43.5722 7.1579C45.203 7.1579 46.3751 6.68922 47.0886 5.75188C47.802 4.81454 48.4645 4.38847 49.0761 4.47368Z" fill="#B99984"/>
</svg>
