<svg width="9" height="6" viewBox="0 0 9 6" fill="none" xmlns="http://www.w3.org/2000/svg">
<path d="M4.75525 0.601851C4.68593 0.533949 4.60714 0.5 4.51891 0.5C4.41807 0.5 4.31723 0.549382 4.21639 0.648148L0.189077 4.53704C0.138656 4.58642 0.0945385 4.6358 0.0567231 4.68519C0.0189077 4.72839 8.72283e-09 4.76852 8.28117e-09 4.80556C7.61868e-09 4.86111 0.031513 4.91975 0.0945388 4.98148L0.47269 5.35185C0.542017 5.41975 0.608193 5.4537 0.671219 5.4537C0.753151 5.4537 0.850841 5.39815 0.964286 5.28704L4.52836 1.88889L8.08298 5.33333C8.19643 5.44444 8.29412 5.5 8.37605 5.5C8.43908 5.5 8.4958 5.47531 8.54622 5.42593L8.89601 5.09259C8.96534 5.02469 9 4.94753 9 4.86111C9 4.75 8.95273 4.65741 8.85819 4.58333L4.75525 0.601851Z" fill="#B99984"/>
</svg>
